<?xml version="1.0" encoding="utf-8"?>
<!-- Generator: Adobe Illustrator 26.1.0, SVG Export Plug-In . SVG Version: 6.00 Build 0)  -->
<svg version="1.1" id="Capa_1" xmlns="http://www.w3.org/2000/svg" xmlns:xlink="http://www.w3.org/1999/xlink" x="0px" y="0px"
	 viewBox="0 0 249.1 119.98" style="enable-background:new 0 0 249.1 119.98;" xml:space="preserve">
<style type="text/css">
	.st0{clip-path:url(#SVGID_00000077303089422412162300000008998190065433580190_);}
	.st1{clip-path:url(#SVGID_00000031191719995746237400000006187989753233809057_);fill:#FFFFFF;}
</style>
<g id="Ilustración_13_00000127727826982508920710000015686844114410511535_">
	<g>
		<defs>
			<rect id="SVGID_1_" width="249.1" height="119.98"/>
		</defs>
		<clipPath id="SVGID_00000151523758335363840930000002092676921094068926_">
			<use xlink:href="#SVGID_1_"  style="overflow:visible;"/>
		</clipPath>
		<g style="clip-path:url(#SVGID_00000151523758335363840930000002092676921094068926_);">
			<defs>
				<rect id="SVGID_00000075135328709809076960000000615731696079831183_" width="249.1" height="119.98"/>
			</defs>
			<clipPath id="SVGID_00000044896744816124966840000013635232574890178749_">
				<use xlink:href="#SVGID_00000075135328709809076960000000615731696079831183_"  style="overflow:visible;"/>
			</clipPath>
			<path style="clip-path:url(#SVGID_00000044896744816124966840000013635232574890178749_);fill:#FFFFFF;" d="M225.38,119.98H23.71
				C10.64,119.98,0,109.35,0,96.28V23.7C0,10.63,10.64,0,23.71,0h201.67c13.08,0,23.71,10.63,23.71,23.7v72.58
				C249.1,109.35,238.46,119.98,225.38,119.98 M23.71,7.15c-9.13,0-16.56,7.43-16.56,16.55v72.58c0,9.13,7.43,16.55,16.56,16.55
				h201.67c9.13,0,16.56-7.42,16.56-16.55V23.7c0-9.12-7.43-16.55-16.56-16.55H23.71z"/>
			<path style="clip-path:url(#SVGID_00000044896744816124966840000013635232574890178749_);fill:#FFFFFF;" d="M221.33,84.14
				l-48.4,0.01c-4.08-0.55-8.06-3.95-8.06-7.98V43.82h-16.13v32.41c0,13.32,10.45,24.05,24.19,24.05h48.39
				c4.54,0,8.06-3.45,8.06-7.9C229.39,87.92,225.91,84.14,221.33,84.14"/>
			<path style="clip-path:url(#SVGID_00000044896744816124966840000013635232574890178749_);fill:#FFFFFF;" d="M95.06,51.88H64.72
				c-2.45,0-4.69,2.17-4.69,4.84l0,6.45c0,2.67,2.24,4.84,4.99,4.84h19.2v7.39c0,4.86-3.86,8.74-8.87,8.74H43.95
				c-4.08,0-8.11-4.18-8.11-8.22V43.9c0-4.03,3.05-8.15,8.07-8.15h26.35c-1.37-2.37-2.15-5.05-2.15-7.98v-0.01v-0.01
				c0-0.01,0-0.02,0-0.02c0.01-2.93,0.8-5.75,2.17-8.11H44.09c-13.74,0-24.39,10.96-24.39,24.28l0,32.67
				c0,13.32,10.64,23.7,24.38,23.7l32.07-0.01c11.98,0,24.2-10.57,24.2-23.89l0-19.66C100.36,54.05,98.12,51.88,95.06,51.88"/>
			<path style="clip-path:url(#SVGID_00000044896744816124966840000013635232574890178749_);fill:#FFFFFF;" d="M181,27.69
				c0,0.01,0,0.01,0,0.02c0,2.93-0.79,5.67-2.16,8.04h42.49c4.59,0,8.07-3.61,8.07-8.06c0-4.45-3.47-8.07-8.07-8.07h-42.48
				C180.22,21.99,181,24.75,181,27.69L181,27.69L181,27.69z"/>
			<path style="clip-path:url(#SVGID_00000044896744816124966840000013635232574890178749_);fill:#FFFFFF;" d="M172.94,27.76
				c0-4.45-3.52-8.14-8.07-8.14H84.22c-4.54,0-8.07,3.69-8.07,8.14c0,4.45,3.52,7.99,8.07,7.99h32.26v14.57v41.9v3.2
				c0,2.67,2.24,4.84,4.99,4.84l6.15,0c2.76,0,4.99-2.17,4.99-4.84v-3.2v-41.9V35.75h32.26C169.42,35.75,172.94,32.21,172.94,27.76"
				/>
		</g>
	</g>
</g>
</svg>
